<mxfile host="app.diagrams.net" modified="2021-07-06T15:34:19.480Z" agent="5.0 (Macintosh; Intel Mac OS X 10_15_6) AppleWebKit/605.1.15 (KHTML, like Gecko) Version/14.0.3 Safari/605.1.15" etag="IZjuX5RMtp4rRxYp3gac" version="14.8.4" type="github">
  <diagram id="PkGmz2fHpyE0yr6x8LYr" name="Page-1">
    <mxGraphModel dx="1008" dy="685" grid="1" gridSize="10" guides="1" tooltips="1" connect="1" arrows="1" fold="1" page="1" pageScale="1" pageWidth="827" pageHeight="1169" background="#ffffff" math="0" shadow="0">
      <root>
        <mxCell id="0" />
        <mxCell id="1" parent="0" />
        <mxCell id="IRTY0l7OzV0erINbD_8--10" value="BackEnd" style="rounded=0;whiteSpace=wrap;html=1;shadow=0;glass=0;labelBackgroundColor=none;sketch=0;fontSize=14;strokeColor=#000000;fillColor=#ffffff;verticalAlign=top;gradientColor=#ffffff;strokeWidth=2;" vertex="1" parent="1">
          <mxGeometry x="440" y="520" width="320" height="200" as="geometry" />
        </mxCell>
        <mxCell id="IRTY0l7OzV0erINbD_8--7" value="&lt;blockquote style=&quot;margin: 0px 0px 0px 40px ; border: none ; padding: 0px ; font-size: 14px&quot;&gt;&lt;div&gt;&lt;div style=&quot;text-align: justify&quot;&gt;&lt;span style=&quot;white-space: pre&quot;&gt;     &amp;nbsp;&lt;span style=&quot;white-space: pre&quot;&gt;     &lt;/span&gt;FrontEnd&lt;/span&gt;&lt;/div&gt;&lt;div&gt;&lt;div style=&quot;text-align: center&quot;&gt;&lt;div style=&quot;text-align: justify&quot;&gt;&lt;span style=&quot;white-space: pre&quot;&gt;      &lt;span style=&quot;white-space: pre&quot;&gt;  &lt;/span&gt;&lt;/span&gt;&lt;span style=&quot;white-space: pre&quot;&gt;Admistrativo&lt;/span&gt;&lt;/div&gt;&lt;/div&gt;&lt;/div&gt;&lt;/div&gt;&lt;/blockquote&gt;&lt;div style=&quot;text-align: justify&quot;&gt;&lt;/div&gt;&lt;div style=&quot;text-align: justify&quot;&gt;&lt;/div&gt;&lt;div style=&quot;text-align: justify&quot;&gt;&lt;/div&gt;&lt;p&gt;&lt;/p&gt;&lt;p&gt;&lt;/p&gt;&lt;p&gt;&lt;/p&gt;&lt;p&gt;&lt;/p&gt;&lt;p&gt;&lt;/p&gt;&lt;p&gt;&lt;/p&gt;&lt;p&gt;&lt;/p&gt;&lt;p&gt;&lt;/p&gt;&lt;p&gt;&lt;/p&gt;" style="whiteSpace=wrap;html=1;aspect=fixed;align=left;verticalAlign=top;labelBackgroundColor=none;labelBorderColor=none;strokeWidth=2;" vertex="1" parent="1">
          <mxGeometry x="640" y="160" width="240" height="240" as="geometry" />
        </mxCell>
        <mxCell id="IRTY0l7OzV0erINbD_8--2" value="&lt;blockquote style=&quot;margin: 0px 0px 0px 40px ; border: none ; padding: 0px ; font-size: 14px&quot;&gt;&lt;div&gt;&lt;div style=&quot;text-align: justify&quot;&gt;&lt;span style=&quot;white-space: pre&quot;&gt;     &amp;nbsp;FrontEnd&lt;/span&gt;&lt;/div&gt;&lt;div&gt;&lt;div style=&quot;text-align: center&quot;&gt;&lt;div style=&quot;text-align: justify&quot;&gt;&lt;span style=&quot;white-space: pre&quot;&gt;      &lt;/span&gt;&lt;span style=&quot;white-space: pre&quot;&gt;Educativo&lt;/span&gt;&lt;/div&gt;&lt;/div&gt;&lt;/div&gt;&lt;/div&gt;&lt;/blockquote&gt;&lt;div style=&quot;text-align: justify&quot;&gt;&lt;/div&gt;&lt;div style=&quot;text-align: justify&quot;&gt;&lt;/div&gt;&lt;div style=&quot;text-align: justify&quot;&gt;&lt;/div&gt;&lt;p&gt;&lt;/p&gt;&lt;p&gt;&lt;/p&gt;&lt;p&gt;&lt;/p&gt;&lt;p&gt;&lt;/p&gt;&lt;p&gt;&lt;/p&gt;&lt;p&gt;&lt;/p&gt;&lt;p&gt;&lt;/p&gt;&lt;p&gt;&lt;/p&gt;&lt;p&gt;&lt;/p&gt;" style="whiteSpace=wrap;html=1;aspect=fixed;align=left;verticalAlign=top;labelBackgroundColor=none;labelBorderColor=none;strokeWidth=2;" vertex="1" parent="1">
          <mxGeometry x="320" y="160" width="240" height="240" as="geometry" />
        </mxCell>
        <mxCell id="IRTY0l7OzV0erINbD_8--1" value="React&lt;br&gt;Formik" style="aspect=fixed;labelBorderColor=none;labelBackgroundColor=none;whiteSpace=wrap;html=1;spacingTop=0;spacing=2;strokeWidth=2;" vertex="1" parent="1">
          <mxGeometry x="360" y="200" width="160" height="160" as="geometry" />
        </mxCell>
        <mxCell id="IRTY0l7OzV0erINbD_8--6" value="React&lt;br&gt;Formik" style="aspect=fixed;labelBorderColor=none;labelBackgroundColor=none;whiteSpace=wrap;html=1;spacingTop=0;spacing=2;strokeWidth=2;" vertex="1" parent="1">
          <mxGeometry x="680" y="200" width="160" height="160" as="geometry" />
        </mxCell>
        <mxCell id="IRTY0l7OzV0erINbD_8--9" value="&amp;nbsp; &amp;nbsp; &amp;nbsp; &amp;nbsp; Express &amp;nbsp; &amp;nbsp; &amp;nbsp; &amp;nbsp; &amp;nbsp; &amp;nbsp; &amp;nbsp; &amp;nbsp; &amp;nbsp;Mongo&lt;br&gt;&lt;span style=&quot;white-space: pre&quot;&gt;                     &lt;span style=&quot;white-space: pre&quot;&gt; &lt;span style=&quot;white-space: pre&quot;&gt;   &lt;/span&gt;&lt;/span&gt;DB&lt;br&gt;&lt;span style=&quot;white-space: pre&quot;&gt;        &lt;span style=&quot;white-space: pre&quot;&gt; &lt;span style=&quot;white-space: pre&quot;&gt; &lt;span style=&quot;white-space: pre&quot;&gt;       &lt;/span&gt;&lt;/span&gt;&lt;/span&gt;Protocol&lt;/span&gt;&lt;br&gt;&lt;/span&gt;" style="rounded=0;whiteSpace=wrap;html=1;shadow=0;glass=0;labelBackgroundColor=none;sketch=0;fontSize=14;strokeColor=#000000;verticalAlign=middle;gradientColor=#ffffff;horizontal=1;align=left;strokeWidth=2;" vertex="1" parent="1">
          <mxGeometry x="480" y="560" width="240" height="120" as="geometry" />
        </mxCell>
        <mxCell id="IRTY0l7OzV0erINbD_8--13" value="" style="endArrow=none;html=1;fontSize=14;exitX=0.5;exitY=1;exitDx=0;exitDy=0;entryX=0.5;entryY=0;entryDx=0;entryDy=0;strokeWidth=2;" edge="1" parent="1" source="IRTY0l7OzV0erINbD_8--9" target="IRTY0l7OzV0erINbD_8--9">
          <mxGeometry width="50" height="50" relative="1" as="geometry">
            <mxPoint x="580" y="660" as="sourcePoint" />
            <mxPoint x="630" y="610" as="targetPoint" />
          </mxGeometry>
        </mxCell>
        <mxCell id="IRTY0l7OzV0erINbD_8--14" value="" style="endArrow=none;html=1;fontSize=14;entryX=0.5;entryY=1;entryDx=0;entryDy=0;strokeWidth=2;endFill=0;startArrow=classic;startFill=1;exitX=0.5;exitY=0;exitDx=0;exitDy=0;" edge="1" parent="1" source="IRTY0l7OzV0erINbD_8--10" target="IRTY0l7OzV0erINbD_8--2">
          <mxGeometry width="50" height="50" relative="1" as="geometry">
            <mxPoint x="550" y="490" as="sourcePoint" />
            <mxPoint x="599.5" y="400" as="targetPoint" />
          </mxGeometry>
        </mxCell>
        <mxCell id="IRTY0l7OzV0erINbD_8--15" value="" style="endArrow=none;html=1;fontSize=14;entryX=0.5;entryY=1;entryDx=0;entryDy=0;strokeWidth=2;endFill=0;startArrow=classic;startFill=1;exitX=0.5;exitY=0;exitDx=0;exitDy=0;" edge="1" parent="1" source="IRTY0l7OzV0erINbD_8--10" target="IRTY0l7OzV0erINbD_8--7">
          <mxGeometry width="50" height="50" relative="1" as="geometry">
            <mxPoint x="827" y="520" as="sourcePoint" />
            <mxPoint x="667" y="400" as="targetPoint" />
          </mxGeometry>
        </mxCell>
        <mxCell id="IRTY0l7OzV0erINbD_8--16" value="Acesso ao&lt;br&gt;conteÃºdo" style="text;html=1;strokeColor=none;fillColor=none;align=center;verticalAlign=middle;whiteSpace=wrap;rounded=0;shadow=0;glass=0;labelBackgroundColor=none;sketch=0;fontSize=14;rotation=37;portConstraintRotation=0;" vertex="1" parent="1">
          <mxGeometry x="475.62" y="432.04" width="80" height="50" as="geometry" />
        </mxCell>
        <mxCell id="IRTY0l7OzV0erINbD_8--20" value="Pedidos&lt;br&gt;Admistrativos" style="text;html=1;strokeColor=none;fillColor=none;align=center;verticalAlign=middle;whiteSpace=wrap;rounded=0;shadow=0;glass=0;labelBackgroundColor=none;sketch=0;fontSize=14;rotation=323;portConstraintRotation=0;" vertex="1" parent="1">
          <mxGeometry x="640" y="432.04" width="80" height="50" as="geometry" />
        </mxCell>
        <mxCell id="IRTY0l7OzV0erINbD_8--24" value="" style="rhombus;whiteSpace=wrap;html=1;strokeWidth=2;fillWeight=-1;hachureGap=8;fillStyle=cross-hatch;fillColor=#006600;sketch=1;rounded=1;shadow=0;glass=0;labelBackgroundColor=none;fontSize=14;align=left;verticalAlign=middle;rotation=90;" vertex="1" parent="1">
          <mxGeometry x="872.5" y="602.5" width="165" height="60" as="geometry" />
        </mxCell>
        <mxCell id="IRTY0l7OzV0erINbD_8--23" value="&lt;font style=&quot;font-size: 20px&quot;&gt;Mongo DB&lt;/font&gt;" style="shape=cylinder3;whiteSpace=wrap;html=1;boundedLbl=1;backgroundOutline=1;size=15;rounded=1;shadow=0;glass=0;labelBackgroundColor=none;sketch=0;fontSize=14;strokeColor=#000000;strokeWidth=2;fillColor=#ffffff;gradientColor=#00FF80;align=center;verticalAlign=middle;" vertex="1" parent="1">
          <mxGeometry x="880" y="520" width="150" height="200" as="geometry" />
        </mxCell>
        <mxCell id="IRTY0l7OzV0erINbD_8--26" value="" style="html=1;shadow=0;dashed=0;align=center;verticalAlign=middle;shape=mxgraph.arrows2.arrow;dy=0.6;dx=40;flipH=1;notch=0;rounded=1;glass=0;labelBackgroundColor=none;sketch=0;fontSize=14;strokeColor=#000000;strokeWidth=2;fillColor=#ffffff;gradientColor=#00FF80;" vertex="1" parent="1">
          <mxGeometry x="772.5" y="577.5" width="100" height="85" as="geometry" />
        </mxCell>
      </root>
    </mxGraphModel>
  </diagram>
</mxfile>
